<svg xmlns="http://www.w3.org/2000/svg" width="120" viewBox="0 0 137 46" class="mt-2" data-v-fd8335aa=""><path fill="#0065FF" fill-rule="evenodd" d="M99.119 10.161c.286-.042 8.904-.053 9.328-.015.064.13-.028.237-.068.345-.403 1.078-9.405 24.858-9.462 25.002h-9.086c-.107-.097-7.074-18.59-9.442-24.85-.039-.105-.087-.205-.153-.356-.054.134-.094.22-.125.309l-2.917 8.34-5.655 16.17c-.49 1.4-1.085 2.751-1.85 4.025-.667 1.11-1.45 2.131-2.393 3.026-1.431 1.36-3.106 2.296-5.001 2.849-.96.28-1.939.46-2.935.553-.815.076-1.63.118-2.449.107a5.59 5.59 0 0 1-.756-.05c-.006-.117-.016-.216-.017-.316-.024-3.553-.008-7.304.036-7.565.07-.009.147-.026.223-.027.534-.008 1.067-.019 1.598-.08.656-.076 1.3-.195 1.917-.436.418-.164.536-.188.873-.458a3.001 3.001 0 0 0 1.028-3.594l-.032-.077c-3.22-7.709-6.186-14.813-9.403-22.522-.05-.12-.14-.234-.113-.391.05-.009.091-.022.134-.022h9.255c.125.124.145.275.192.41 1.004 2.829 2.005 5.659 3.005 8.489l1.909 5.393c.033.094.071.186.124.326.045-.112.08-.18.099-.25l1.019-3.757 2.794-10.323c.023-.087.055-.171.08-.245.023-.014.032-.02.042-.024.01-.005.02-.012.032-.012l18.432-.008c.056 0 .112.006.191.01.049.122.103.243.145.369l1.86 5.659c.89 2.7 1.778 5.401 2.672 8.1.033.1.022.232.167.294l.785-2.415.779-2.381.784-2.414.79-2.413c.259-.794.512-1.59.775-2.382.265-.801.51-1.61.789-2.393zm19.489-.6a14.152 14.152 0 0 1 2.956-.11c3.407.225 6.356 1.476 8.724 3.966 1.488 1.566 2.473 3.414 3.042 5.486.392 1.427.535 2.88.493 4.357a10.83 10.83 0 0 1-.35 2.474c-.012.042-.028.084-.056.17h-13.606c-.648 0-1.295-.002-1.941 0-.644 0-1.287-.006-1.965.004.051.129.082.223.125.312.585 1.19 1.529 1.969 2.782 2.385a7.513 7.513 0 0 0 1.934.356c.499.03.995.043 1.496.002 1.386-.113 2.622-.587 3.69-1.482l.277-.234c.239.113 5.783 3.96 6.113 4.24-.038.06-.073.126-.12.183-1.246 1.501-2.781 2.613-4.58 3.37-1.122.472-2.29.777-3.495.963a18.223 18.223 0 0 1-3.462.188c-2.446-.093-4.786-.615-6.944-1.802-3.171-1.746-5.212-4.384-6.158-7.866a13.747 13.747 0 0 1-.466-3.867c.049-2.5.644-4.848 1.944-6.98 1.664-2.726 4.045-4.56 7.084-5.558a14.62 14.62 0 0 1 2.483-.557zM10.028.001l4.837.013c3.734.021 7.114 1.154 10.105 3.383 2.512 1.872 4.333 4.283 5.533 7.16a18.283 18.283 0 0 1 1.185 4.296c.211 1.38.263 2.767.173 4.154-.2 3.119-1.086 6.033-2.794 8.67-2.416 3.727-5.798 6.148-10.108 7.279-.826.217-1.67.359-2.52.438-.758.071-1.517.11-2.277.11H.468c-.134 0-.269-.005-.411-.007-.02-.073-.045-.125-.048-.178-.007-.113-.005-.226-.005-.339V17.758L.006.537C.006.37-.024.199.055.02.153.015.254.006.354.006c4.837 0 9.674-.018 14.51.008zm40.16 10.139v7.656h-4.802a2.846 2.846 0 0 0-2.854 2.838V35.24H34.11V18.514c0-4.625 3.77-8.374 8.422-8.374h7.656zM14.552 8.769c-1.612-.012-3.225-.004-4.837-.002-.088 0-.176.01-.273.018-.013.056-.029.098-.031.14-.032.527-.007 17.502.031 17.79h5.057c.566 0 1.134-.033 1.69-.137 2.061-.383 3.739-1.358 4.974-2.989 1.003-1.323 1.526-2.833 1.72-4.465.12-1.005.104-2.01-.033-3.02a9.343 9.343 0 0 0-.53-2.101c-.772-1.999-2.083-3.502-4.01-4.423-1.186-.568-2.45-.801-3.758-.811zm109.628 8.988c-1.256-1.111-2.566-1.269-3.911-1.206a4.934 4.934 0 0 0-1.18.192c-1.723.517-2.738 1.644-3.256 3.185-.013.038-.002.084-.002.146l9.516-.001c.042 0 .084-.013.142-.023a4.673 4.673 0 0 0-.458-1.185 3.928 3.928 0 0 0-.85-1.108z"></path></svg>